<svg xmlns="http://www.w3.org/2000/svg" xml:space="preserve" viewBox="0 0 485.5 485.5">
  <path d="M55.5 123.2a28.2 28.2 0 0 0-28.2 28.2V208a35.8 35.8 0 0 0 0 69.4V334a28.2 28.2 0 0 0 56.3 0V151.4a28.2 28.2 0 0 0-28.1-28.2zM334.5 65.3c-23 0-41.8 18.7-41.8 41.8V201h-93l-6.9-.2V107a41.8 41.8 0 0 0-83.6 0v271.3a41.8 41.8 0 0 0 83.6 0v-93.6l6.9-.2h93v93.8a41.8 41.8 0 1 0 83.6 0V107.1c0-23.1-18.7-41.8-41.8-41.8zM458.2 208v-56.6a28.2 28.2 0 0 0-56.3 0V334a28.2 28.2 0 0 0 56.3 0v-56.6a35.8 35.8 0 0 0 0-69.4z"/>
</svg>