<svg width="494" height="377" viewBox="0 0 494 377" fill="none" xmlns="http://www.w3.org/2000/svg">
<rect width="494" height="377" fill="#CCC7B9"/>
<path d="M43 148C43 140.82 48.8203 135 56 135H81V241H56C48.8203 241 43 235.18 43 228V148Z" fill="#A41623"/>
<rect x="90" y="114" width="71" height="149" rx="9" fill="#A41623"/>
<path d="M452 148C452 140.82 446.18 135 439 135H414V241H439C446.18 241 452 235.18 452 228V148Z" fill="#A41623"/>
<rect width="71" height="149" rx="9" transform="matrix(-1 0 0 1 405 114)" fill="#A41623"/>
<path d="M228.52 179.28C226.915 179.28 225.589 179.075 224.544 178.664C223.499 178.235 222.677 177.609 222.08 176.788C221.501 175.948 221.091 174.921 220.848 173.708C220.605 172.476 220.484 171.057 220.484 169.452C220.484 167.753 220.615 166.288 220.876 165.056C221.156 163.805 221.604 162.779 222.22 161.976C222.855 161.155 223.676 160.548 224.684 160.156C225.711 159.745 226.971 159.54 228.464 159.54C229.229 159.54 230.023 159.587 230.844 159.68C231.684 159.755 232.477 159.857 233.224 159.988C233.989 160.119 234.624 160.249 235.128 160.38L235.072 163.404C234.549 163.311 233.915 163.227 233.168 163.152C232.44 163.077 231.693 163.021 230.928 162.984C230.163 162.928 229.472 162.9 228.856 162.9C227.923 162.9 227.157 163.021 226.56 163.264C225.981 163.507 225.533 163.899 225.216 164.44C224.917 164.963 224.712 165.644 224.6 166.484C224.488 167.305 224.432 168.295 224.432 169.452C224.432 170.927 224.535 172.159 224.74 173.148C224.964 174.119 225.384 174.837 226 175.304C226.635 175.771 227.54 176.004 228.716 176.004C229.015 176.004 229.332 175.995 229.668 175.976C230.023 175.957 230.359 175.929 230.676 175.892C231.012 175.855 231.292 175.817 231.516 175.78V171.608H229.248V168.668H235.184V178.552C234.773 178.608 234.279 178.683 233.7 178.776C233.121 178.851 232.515 178.925 231.88 179C231.264 179.075 230.657 179.14 230.06 179.196C229.481 179.252 228.968 179.28 228.52 179.28ZM242.251 179V171.748L236.399 159.876H240.599L244.183 167.548L247.823 159.876H251.995L246.115 171.748V179H242.251ZM253.748 179V159.876H259.964L263.828 172.644L267.608 159.876H273.908V179H270.044V164.832H269.652L265.648 178.496H262.008L258.004 164.832H257.612V179H253.748Z" fill="#011936"/>
<path d="M195.56 217.308C193.525 217.308 191.91 216.953 190.716 216.244C189.54 215.516 188.69 214.424 188.168 212.968C187.664 211.512 187.412 209.692 187.412 207.508C187.412 205.305 187.664 203.467 188.168 201.992C188.69 200.517 189.54 199.407 190.716 198.66C191.91 197.913 193.525 197.54 195.56 197.54C197.594 197.54 199.2 197.913 200.376 198.66C201.57 199.407 202.42 200.517 202.924 201.992C203.446 203.467 203.708 205.305 203.708 207.508C203.708 209.729 203.446 211.568 202.924 213.024C202.42 214.48 201.57 215.563 200.376 216.272C199.2 216.963 197.594 217.308 195.56 217.308ZM195.56 214.06C196.736 214.06 197.622 213.827 198.22 213.36C198.836 212.875 199.246 212.147 199.452 211.176C199.657 210.187 199.76 208.964 199.76 207.508C199.76 206.052 199.648 204.829 199.424 203.84C199.218 202.832 198.817 202.076 198.22 201.572C197.622 201.049 196.736 200.788 195.56 200.788C194.402 200.788 193.516 201.049 192.9 201.572C192.302 202.076 191.892 202.832 191.668 203.84C191.444 204.829 191.332 206.052 191.332 207.508C191.332 208.945 191.434 210.149 191.64 211.12C191.864 212.091 192.274 212.828 192.872 213.332C193.488 213.817 194.384 214.06 195.56 214.06ZM206.621 217V197.876H213.817C215.404 197.876 216.72 198.1 217.765 198.548C218.811 198.977 219.595 199.677 220.117 200.648C220.659 201.619 220.929 202.916 220.929 204.54C220.929 206.164 220.659 207.489 220.117 208.516C219.595 209.524 218.811 210.271 217.765 210.756C216.72 211.223 215.404 211.456 213.817 211.456H210.485V217H206.621ZM210.485 208.292H213.705C214.881 208.292 215.721 207.984 216.225 207.368C216.729 206.733 216.981 205.8 216.981 204.568C216.981 203.299 216.729 202.393 216.225 201.852C215.721 201.311 214.881 201.04 213.705 201.04H210.485V208.292ZM226.778 217V201.152H221.626V197.876H235.626V201.152H230.642V217H226.778ZM237.739 217V197.876H241.603V217H237.739ZM245.149 217V197.876H251.365L255.229 210.644L259.009 197.876H265.309V217H261.445V202.832H261.053L257.049 216.496H253.409L249.405 202.832H249.013V217H245.149ZM276.024 217.308C274.456 217.308 273.122 217.103 272.02 216.692C270.938 216.281 270.116 215.6 269.556 214.648C268.996 213.677 268.716 212.389 268.716 210.784V197.876H272.58V210.924C272.58 212.025 272.87 212.819 273.448 213.304C274.046 213.789 274.904 214.032 276.024 214.032C277.2 214.032 278.087 213.789 278.684 213.304C279.282 212.819 279.58 212.025 279.58 210.924V197.876H283.444V210.728C283.444 212.333 283.155 213.621 282.576 214.592C282.016 215.563 281.186 216.263 280.084 216.692C279.002 217.103 277.648 217.308 276.024 217.308ZM286.821 217V197.876H293.037L296.901 210.644L300.681 197.876H306.981V217H303.117V202.832H302.725L298.721 216.496H295.081L291.077 202.832H290.685V217H286.821Z" fill="#A41623"/>
</svg>
