<svg width="409" height="149" viewBox="0 0 409 149" fill="none" xmlns="http://www.w3.org/2000/svg">
<path d="M0 34C0 26.8203 5.8203 21 13 21H38V127H13C5.8203 127 0 121.18 0 114V34Z" fill="#A41623"/>
<rect x="47" width="71" height="149" rx="9" fill="#A41623"/>
<path d="M409 34C409 26.8203 403.18 21 396 21H371V127H396C403.18 127 409 121.18 409 114V34Z" fill="#A41623"/>
<rect width="71" height="149" rx="9" transform="matrix(-1 0 0 1 362 0)" fill="#A41623"/>
<path d="M185.52 65.28C183.915 65.28 182.589 65.0747 181.544 64.664C180.499 64.2347 179.677 63.6093 179.08 62.788C178.501 61.948 178.091 60.9213 177.848 59.708C177.605 58.476 177.484 57.0573 177.484 55.452C177.484 53.7533 177.615 52.288 177.876 51.056C178.156 49.8053 178.604 48.7787 179.22 47.976C179.855 47.1547 180.676 46.548 181.684 46.156C182.711 45.7453 183.971 45.54 185.464 45.54C186.229 45.54 187.023 45.5867 187.844 45.68C188.684 45.7547 189.477 45.8573 190.224 45.988C190.989 46.1187 191.624 46.2493 192.128 46.38L192.072 49.404C191.549 49.3107 190.915 49.2267 190.168 49.152C189.44 49.0773 188.693 49.0213 187.928 48.984C187.163 48.928 186.472 48.9 185.856 48.9C184.923 48.9 184.157 49.0213 183.56 49.264C182.981 49.5067 182.533 49.8987 182.216 50.44C181.917 50.9627 181.712 51.644 181.6 52.484C181.488 53.3053 181.432 54.2947 181.432 55.452C181.432 56.9267 181.535 58.1587 181.74 59.148C181.964 60.1187 182.384 60.8373 183 61.304C183.635 61.7707 184.54 62.004 185.716 62.004C186.015 62.004 186.332 61.9947 186.668 61.976C187.023 61.9573 187.359 61.9293 187.676 61.892C188.012 61.8547 188.292 61.8173 188.516 61.78V57.608H186.248V54.668H192.184V64.552C191.773 64.608 191.279 64.6827 190.7 64.776C190.121 64.8507 189.515 64.9253 188.88 65C188.264 65.0747 187.657 65.14 187.06 65.196C186.481 65.252 185.968 65.28 185.52 65.28ZM199.251 65V57.748L193.399 45.876H197.599L201.183 53.548L204.823 45.876H208.995L203.115 57.748V65H199.251ZM210.748 65V45.876H216.964L220.828 58.644L224.608 45.876H230.908V65H227.044V50.832H226.652L222.648 64.496H219.008L215.004 50.832H214.612V65H210.748Z" fill="#CCC7B9"/>
<path d="M152.56 103.308C150.525 103.308 148.91 102.953 147.716 102.244C146.54 101.516 145.69 100.424 145.168 98.968C144.664 97.512 144.412 95.692 144.412 93.508C144.412 91.3053 144.664 89.4667 145.168 87.992C145.69 86.5173 146.54 85.4067 147.716 84.66C148.91 83.9133 150.525 83.54 152.56 83.54C154.594 83.54 156.2 83.9133 157.376 84.66C158.57 85.4067 159.42 86.5173 159.924 87.992C160.446 89.4667 160.708 91.3053 160.708 93.508C160.708 95.7293 160.446 97.568 159.924 99.024C159.42 100.48 158.57 101.563 157.376 102.272C156.2 102.963 154.594 103.308 152.56 103.308ZM152.56 100.06C153.736 100.06 154.622 99.8267 155.22 99.36C155.836 98.8747 156.246 98.1467 156.452 97.176C156.657 96.1867 156.76 94.964 156.76 93.508C156.76 92.052 156.648 90.8293 156.424 89.84C156.218 88.832 155.817 88.076 155.22 87.572C154.622 87.0493 153.736 86.788 152.56 86.788C151.402 86.788 150.516 87.0493 149.9 87.572C149.302 88.076 148.892 88.832 148.668 89.84C148.444 90.8293 148.332 92.052 148.332 93.508C148.332 94.9453 148.434 96.1493 148.64 97.12C148.864 98.0907 149.274 98.828 149.872 99.332C150.488 99.8173 151.384 100.06 152.56 100.06ZM163.621 103V83.876H170.817C172.404 83.876 173.72 84.1 174.765 84.548C175.811 84.9773 176.595 85.6773 177.117 86.648C177.659 87.6187 177.929 88.916 177.929 90.54C177.929 92.164 177.659 93.4893 177.117 94.516C176.595 95.524 175.811 96.2707 174.765 96.756C173.72 97.2227 172.404 97.456 170.817 97.456H167.485V103H163.621ZM167.485 94.292H170.705C171.881 94.292 172.721 93.984 173.225 93.368C173.729 92.7333 173.981 91.8 173.981 90.568C173.981 89.2987 173.729 88.3933 173.225 87.852C172.721 87.3107 171.881 87.04 170.705 87.04H167.485V94.292ZM183.778 103V87.152H178.626V83.876H192.626V87.152H187.642V103H183.778ZM194.739 103V83.876H198.603V103H194.739ZM202.149 103V83.876H208.365L212.229 96.644L216.009 83.876H222.309V103H218.445V88.832H218.053L214.049 102.496H210.409L206.405 88.832H206.013V103H202.149ZM233.024 103.308C231.456 103.308 230.122 103.103 229.02 102.692C227.938 102.281 227.116 101.6 226.556 100.648C225.996 99.6773 225.716 98.3893 225.716 96.784V83.876H229.58V96.924C229.58 98.0253 229.87 98.8187 230.448 99.304C231.046 99.7893 231.904 100.032 233.024 100.032C234.2 100.032 235.087 99.7893 235.684 99.304C236.282 98.8187 236.58 98.0253 236.58 96.924V83.876H240.444V96.728C240.444 98.3333 240.155 99.6213 239.576 100.592C239.016 101.563 238.186 102.263 237.084 102.692C236.002 103.103 234.648 103.308 233.024 103.308ZM243.821 103V83.876H250.037L253.901 96.644L257.681 83.876H263.981V103H260.117V88.832H259.725L255.721 102.496H252.081L248.077 88.832H247.685V103H243.821Z" fill="#A41623"/>
</svg>
