<svg  viewBox="0 0 200 73" fill="none" xmlns="http://www.w3.org/2000/svg">
<path d="M0 23.269C0 16.0893 5.8203 10.269 13 10.269H18.5819V62.1028H13C5.8203 62.1028 0 56.2825 0 49.1028V23.269Z" fill="#A41623"/>
<rect x="22.9829" width="34.7188" height="72.8606" rx="9" fill="#A41623"/>
<path d="M200 23.269C200 16.0893 194.18 10.269 187 10.269H181.418V62.1028H187C194.18 62.1028 200 56.2825 200 49.1028V23.269Z" fill="#A41623"/>
<rect width="34.7188" height="72.8606" rx="9" transform="matrix(-1 0 0 1 177.017 0)" fill="#A41623"/>
<path d="M94.939 33.12C94.251 33.12 93.683 33.032 93.235 32.856C92.787 32.672 92.435 32.404 92.179 32.052C91.931 31.692 91.755 31.252 91.651 30.732C91.547 30.204 91.495 29.596 91.495 28.908C91.495 28.18 91.551 27.552 91.663 27.024C91.783 26.488 91.975 26.048 92.239 25.704C92.511 25.352 92.863 25.092 93.295 24.924C93.735 24.748 94.275 24.66 94.915 24.66C95.243 24.66 95.583 24.68 95.935 24.72C96.295 24.752 96.635 24.796 96.955 24.852C97.283 24.908 97.555 24.964 97.771 25.02L97.747 26.316C97.523 26.276 97.251 26.24 96.931 26.208C96.619 26.176 96.299 26.152 95.971 26.136C95.643 26.112 95.347 26.1 95.083 26.1C94.683 26.1 94.355 26.152 94.099 26.256C93.851 26.36 93.659 26.528 93.523 26.76C93.395 26.984 93.307 27.276 93.259 27.636C93.211 27.988 93.187 28.412 93.187 28.908C93.187 29.54 93.231 30.068 93.319 30.492C93.415 30.908 93.595 31.216 93.859 31.416C94.131 31.616 94.519 31.716 95.023 31.716C95.151 31.716 95.287 31.712 95.431 31.704C95.583 31.696 95.727 31.684 95.863 31.668C96.007 31.652 96.127 31.636 96.223 31.62V29.832H95.251V28.572H97.795V32.808C97.619 32.832 97.407 32.864 97.159 32.904C96.911 32.936 96.651 32.968 96.379 33C96.115 33.032 95.855 33.06 95.599 33.084C95.351 33.108 95.131 33.12 94.939 33.12ZM100.824 33V29.892L98.3158 24.804H100.116L101.652 28.092L103.212 24.804H105L102.48 29.892V33H100.824ZM105.751 33V24.804H108.415L110.071 30.276L111.691 24.804H114.391V33H112.735V26.928H112.567L110.851 32.784H109.291L107.575 26.928H107.407V33H105.751Z" fill="#011936"/>
<path d="M80.8132 56.132C79.9412 56.132 79.2492 55.98 78.7372 55.676C78.2332 55.364 77.8692 54.896 77.6452 54.272C77.4292 53.648 77.3212 52.868 77.3212 51.932C77.3212 50.988 77.4292 50.2 77.6452 49.568C77.8692 48.936 78.2332 48.46 78.7372 48.14C79.2492 47.82 79.9412 47.66 80.8132 47.66C81.6852 47.66 82.3732 47.82 82.8772 48.14C83.3892 48.46 83.7532 48.936 83.9692 49.568C84.1932 50.2 84.3052 50.988 84.3052 51.932C84.3052 52.884 84.1932 53.672 83.9692 54.296C83.7532 54.92 83.3892 55.384 82.8772 55.688C82.3732 55.984 81.6852 56.132 80.8132 56.132ZM80.8132 54.74C81.3172 54.74 81.6972 54.64 81.9532 54.44C82.2172 54.232 82.3932 53.92 82.4812 53.504C82.5692 53.08 82.6132 52.556 82.6132 51.932C82.6132 51.308 82.5652 50.784 82.4692 50.36C82.3812 49.928 82.2092 49.604 81.9532 49.388C81.6972 49.164 81.3172 49.052 80.8132 49.052C80.3172 49.052 79.9372 49.164 79.6732 49.388C79.4172 49.604 79.2412 49.928 79.1452 50.36C79.0492 50.784 79.0012 51.308 79.0012 51.932C79.0012 52.548 79.0452 53.064 79.1332 53.48C79.2292 53.896 79.4052 54.212 79.6612 54.428C79.9252 54.636 80.3092 54.74 80.8132 54.74ZM85.554 56V47.804H88.638C89.318 47.804 89.882 47.9 90.33 48.092C90.778 48.276 91.114 48.576 91.338 48.992C91.57 49.408 91.686 49.964 91.686 50.66C91.686 51.356 91.57 51.924 91.338 52.364C91.114 52.796 90.778 53.116 90.33 53.324C89.882 53.524 89.318 53.624 88.638 53.624H87.21V56H85.554ZM87.21 52.268H88.59C89.094 52.268 89.454 52.136 89.67 51.872C89.886 51.6 89.994 51.2 89.994 50.672C89.994 50.128 89.886 49.74 89.67 49.508C89.454 49.276 89.094 49.16 88.59 49.16H87.21V52.268ZM94.1926 56V49.208H91.9846V47.804H97.9846V49.208H95.8486V56H94.1926ZM98.8899 56V47.804H100.546V56H98.8899ZM102.066 56V47.804H104.73L106.386 53.276L108.006 47.804H110.706V56H109.05V49.928H108.882L107.166 55.784H105.606L103.89 49.928H103.722V56H102.066ZM115.298 56.132C114.626 56.132 114.054 56.044 113.582 55.868C113.118 55.692 112.766 55.4 112.526 54.992C112.286 54.576 112.166 54.024 112.166 53.336V47.804H113.822V53.396C113.822 53.868 113.946 54.208 114.194 54.416C114.45 54.624 114.818 54.728 115.298 54.728C115.802 54.728 116.182 54.624 116.438 54.416C116.694 54.208 116.822 53.868 116.822 53.396V47.804H118.478V53.312C118.478 54 118.354 54.552 118.106 54.968C117.866 55.384 117.51 55.684 117.038 55.868C116.574 56.044 115.994 56.132 115.298 56.132ZM119.925 56V47.804H122.589L124.245 53.276L125.865 47.804H128.565V56H126.909V49.928H126.741L125.025 55.784H123.465L121.749 49.928H121.581V56H119.925Z" fill="#A41623"/>
</svg>
